<svg xmlns="http://www.w3.org/2000/svg" xml:space="preserve" width="100" height="125">
  <g class="layer">
    <path d="M92.14 50.46zm-7.19 27.2c.08.67-.12 1.34-.58 1.84-.44.51-1.09.8-1.77.8H3.29a2.369 2.369 0 0 1-2.35-2.64l4.59-36.75c.39-3.06 3-5.36 6.09-5.36h62.64c3.09 0 5.7 2.3 6.09 5.36l4.59 36.75zm-2.88-.18-4.52-36.22a3.304 3.304 0 0 0-3.28-2.89H11.63c-1.66 0-3.07 1.24-3.28 2.89L3.83 77.48h78.23zM12.19 50.31c.36 0 .73-.14 1-.41l5.74-5.72c.55-.55.55-1.44 0-1.99s-1.45-.55-2 0l-5.74 5.72c-.56.55-.56 1.44 0 1.99.27.27.64.41 1 .41zm10.62-7.26-12.04 12c-.55.55-.55 1.45 0 1.99.28.27.64.41 1 .41s.73-.14 1.01-.41l12.04-12c.55-.55.55-1.45 0-1.99a1.43 1.43 0 0 0-2.01 0zm39.71 23.87c.36 0 .72-.13 1-.41l5.73-5.71c.56-.55.56-1.45 0-1.99s-1.44-.55-2 0l-5.73 5.71c-.56.55-.56 1.45 0 1.99.27.28.63.41 1 .41zm10.62-7.25-12.04 12c-.56.55-.56 1.44 0 1.99.27.27.63.41 1 .41s.73-.14 1-.41l12.04-12c.56-.55.56-1.45 0-1.99s-1.45-.55-2 0z"/>
  </g>
</svg>